<svg version="1.1" id="Capa_1" xmlns="http://www.w3.org/2000/svg" x="0" y="0" viewBox="0 0 402.177 402.177" xml:space="preserve"><path d="M110.413 293.081c-2.691-.617-4.423-3.233-3.846-5.934l15.809-74.044a5 5 0 019.78 2.088l-15.809 74.044c-.502 2.349-2.601 4.61-5.934 3.846zm175.418-3.846l-15.809-74.044a5 5 0 019.78-2.088l15.809 74.044c.577 2.7-1.157 5.305-3.846 5.934-2.932.686-5.433-1.497-5.934-3.846z"/><path d="M353.869 152.321c-14.316-53.061-33.215-85.986-33.435-86.235-.567-.646-13.501-15.083-36.436-21.237C281.874 17.901 249.099 0 201.088 0s-80.784 17.901-82.909 44.849C95.244 51.003 82.31 65.44 81.743 66.086c-.22.249-19.119 33.175-33.435 86.235-13.185 48.875-25.624 126.269-9.998 217.414.01.054 4.162 28.169 4.162 28.169a4.998 4.998 0 004.946 4.272h34.11a5 5 0 004.951-4.302l3.889-27.578 4.206-8.745 1.172 5.126a5 5 0 004.874 3.886h200.936a5 5 0 004.874-3.886l1.172-5.126 4.206 8.745 3.889 27.578a5 5 0 004.951 4.302h34.11a4.998 4.998 0 004.946-4.272s4.152-28.115 4.162-28.169c15.627-91.145 3.188-168.539-9.997-217.414zM283.15 55.02c14.518 4.323 24.289 12.399 28.047 15.94l-11.158 49.169h-93.95V100.31l10.292-21.235c10.881.837 43.462 2.039 59.009-11.802 3.877-3.453 6.468-7.557 7.76-12.253zm-181.126 75.109h94.064v201.315H98.197c-3.416-20.784-17.287-117.291 3.827-201.315zm-1.787 211.315h95.852v4.559h-94.81l-1.042-4.559zM201.088 87.698l-7.595-15.672a4.924 4.924 0 00-.891-1.526 237.643 237.643 0 01-7.014-8.489h30.998a237.643 237.643 0 01-7.014 8.489 4.944 4.944 0 00-.891 1.526l-7.593 15.672zm-22.949-35.687c-4.958-7.102-8.458-13.26-8.458-15.938 0-5.614 12.915-9.536 31.407-9.536s31.407 3.922 31.407 9.536c0 2.679-3.5 8.837-8.458 15.938h-45.898zM201.088 10c42.996 0 73.025 15.484 73.025 37.656 0 4.952-1.756 8.924-5.367 12.142-9.827 8.754-31.224 10.101-45.281 9.658 7.983-9.934 19.03-25.164 19.03-33.384 0-12.598-14.705-19.536-41.407-19.536s-41.407 6.938-41.407 19.536c0 8.22 11.047 23.45 19.029 33.384-14.059.441-35.453-.904-45.28-9.658-3.611-3.218-5.367-7.19-5.367-12.142 0-22.172 30.029-37.656 73.025-37.656zm-82.061 45.021c1.293 4.695 3.883 8.8 7.761 12.252 15.546 13.84 48.127 12.638 59.009 11.802l10.292 21.235v19.819h-93.95l-11.16-49.18c3.735-3.544 13.449-11.595 28.048-15.928zM77.184 392.177H51.737l-.609-4.144h26.641l-.585 4.144zm1.994-14.144H49.657l-.608-4.143h30.714l-.585 4.143zm3.175-14.142H47.472c-14.219-87.386-2.271-161.518 10.394-208.604 8.892-33.062 19.344-57.697 25.812-71.319L93 125.043c-24.498 93.997-5.43 204.014-4.007 211.893.021.209 2.008 8.978 2.008 8.978l-8.648 17.977zm22.254-3.327l-1.043-4.561h92.524v4.561h-91.481zm192.963 0h-91.481v-4.561h92.524l-1.043 4.561zm3.328-14.561h-94.81v-4.559h95.852l-1.042 4.559zm3.082-14.559h-97.892V130.129h94.064c21.115 84.024 7.244 180.531 3.828 201.315zm46.46 60.733h-25.447l-.584-4.144h26.641l-.61 4.144zm2.08-14.144h-29.521l-.584-4.143h30.714l-.609 4.143zm2.185-14.142h-34.881l-8.647-17.978s1.987-8.77 2.008-8.978c1.423-7.879 20.491-117.896-4.007-211.893l9.324-41.084c6.438 13.553 16.826 38.03 25.712 70.968 12.723 47.16 24.734 121.42 10.491 208.965z"/></svg>